<?xml version="1.0" encoding="UTF-8" standalone="no"?>
<svg
   xmlns:dc="http://purl.org/dc/elements/1.1/"
   xmlns:cc="http://creativecommons.org/ns#"
   xmlns:rdf="http://www.w3.org/1999/02/22-rdf-syntax-ns#"
   xmlns:svg="http://www.w3.org/2000/svg"
   xmlns="http://www.w3.org/2000/svg"
   version="1.1"
   width="1033"
   height="569"
   id="svg2">
  <defs
     id="defs4" />
  <metadata
     id="metadata6">
    <rdf:RDF>
      <cc:Work
         rdf:about="">
        <dc:format>image/svg+xml</dc:format>
        <dc:type
           rdf:resource="http://purl.org/dc/dcmitype/StillImage" />
        <dc:title></dc:title>
      </cc:Work>
    </rdf:RDF>
  </metadata>
  <g
     id="boat-body"
     style="fill:#cbcbcb">
    <path
       d="m 1012.3374,385.33185 c 10.718,-1.278 17.603,-3.578 20.415,-6.898 l -107.94197,13.272 h -0.511 -0.256 l -437.414,53.085 c 0,0 0,0 -0.256,0 0.512,22.97 10.464,40.575 30.624,53.594 5.365,3.564 10.974,6.375 16.082,8.164 4.588,-5.366 10.21,-9.698 16.586,-13.273 l 0,0 c 0.255,0 0.255,0 0.255,0 57.169,-34.699 142.142,-40.066 254.429,-16.584 l 1.275,0.511 c 12.255,2.55 24.25,5.609 35.733,8.931 3.565,0.51 6.376,-0.257 8.676,-2.301 4.076,-3.066 9.186,-5.352 16.072,-7.141 v -0.256 l 0,0 c 17.873,-32.155 42.62,-55.894 73.242,-71.199 21.183,-10.72 45.43097,-17.357 72.98997,-19.905 z"
       id="path9" />
    <path
       d="m 609.37841,86.495848 c -0.255,-0.256 -0.511,-0.51 -1.011,-0.51 -0.512,0 -0.767,0 -1.021,0.254 -0.257,0.256 -0.511,0.768 -0.767,1.277 l -20.415,331.493 c 0,0 0,0 0,0.256 l 0,0 c 0.256,-0.256 0.51,-0.256 0.51,-0.256 0,0 0.257,-0.252 0.511,-0.252 0.769,0 1.268,0 2.033,0.252 l 20.671,-331.493 c 0,-0.256 -0.254,-0.765 -0.511,-1.021 z"
       id="path11" />
    <path
       d="m 781.6444,4.578846 c -0.256,-0.257 -0.512,-0.768 -1.021,-0.768 -0.512,0 -0.768,0.511 -1.277,0.511 -0.256,0.257 -0.513,0.766 -0.513,1.277 l -21.69,392.743002 c 0,0 0.254,0 0.51,0 0.511,0 1.021,0 1.533,0 0.254,0 0.254,0 0.511,-0.259 0,0 0,0 0,-0.246 0.256,0 0.512,0 0.512,0 l 0,0 21.181,-382.030002 0,0 0,0 0,0 c 0,-0.511 0,-0.511 0,-0.511 0,0 0,0 0,-0.256 0,0 0,0 0.256,0 -0.256,-0.255 -0.256,-0.255 -0.256,-0.255 0,0 0,0 0.256,0 -0.256,-0.257 -0.256,-0.257 -0.256,-0.257 0,-0.254 0,-0.254 0.256,-0.511 -0.256,0 -0.256,0 -0.256,-0.257 l 0,0 c 0,0 0,0 0,-0.252 0,0 0,0 0.256,0 -0.256,0 -0.256,0 -0.256,-0.257 0,0 0,0 0.256,0 l 0.255,-7.653 c -0.002,-0.51 -0.002,-0.764 -0.257,-1.019 z"
       id="path13" />
  </g>
  <g
     id="g15"
     style="fill:none;stroke:#cbcbcb;stroke-width:2;stroke-linecap:round;stroke-linejoin:round">
    <path
       d="m 652.50841,515.98985 c -5.353,-2.045 -11.229,-3.323 -17.348,-3.834 -12.509,-0.767 -27.56,4.088 -45.177,14.552 -17.605,10.464 -38.786,14.796 -64.046,12.508"
       id="path17" />
    <path
       d="m 584.8854,513.94485 c -28.834,13.785 -50.016,16.084 -63.033,7.4 -13.273,-8.934 -33.689,-6.634 -61.247,6.385"
       id="path19" />
    <path
       d="m 809.96941,489.96285 c -121.472,-25.012 -209.01,-19.147 -262.602,17.862"
       id="path21" />
    <path
       d="m 886.52141,501.94885 c -5.354,-2.034 -11.229,-3.31 -17.351,-3.819 -12.506,-1.022 -27.557,3.819 -45.171,14.282 -17.607,10.72 -38.791,14.809 -64.048,12.763"
       id="path23" />
  </g>
  <g
     id="g25"
     style="fill:#cbcbcb">
    <path
       d="m 774.4914,143.90885 c 26.547,55.128 36.243,138.066 29.092,249.076 l 104.632,-12.764 z"
       id="path27" />
    <path
       d="m 750.0004,395.02785 25.001,-383.052998 c -36.487,139.853998 -94.424,270.256998 -174.297,391.472998 z"
       id="path29" />
    <path
       d="m 580.2884,412.12085 0,0 21.947,-323.581 -115.862,333.28 z"
       id="path31" />
    <path
       d="m 782.4004,14.27485 0,0 -0.246,0.254 0,0 0,0.257 0,0 0,0.255 0,0 0,0.256 0,0 0,0.511 -0.255,0.257 0.255,0 0,0 0,0.254 0,0 0,0.256 0,0 26.794,44.395998 -2.813,-4.075 0,0 c 18.883,55.369 26.803,114.84 23.738,177.611 l 0,0 c 0,0.251 0,0.251 0,0.251 l 0.254,0.256 c 0.257,0.512 0.768,0.766 1.021,1.277 0,0 0,0.256 0.256,0.512 l 24.749,43.642 c 0.254,0.256 0.254,0.511 0.254,1.023 l 0.257,0 0,0 c 0.511,0.251 0.511,0.508 1.021,0.765 37.767,33.178 80.64,55.627 127.85897,67.366 l 11.479,18.628 c 0.504,0 1.017,0 1.271,0.509 0.256,-0.254 0.256,-0.509 0.512,-0.509 z"
       id="path33" />
  </g>
  <g
     id="g35"
     style="fill:none;stroke:#cbcbcb;stroke-width:2.44117355;stroke-linecap:round;stroke-linejoin:round">
    <path
       d="m 709.6874,30.510971 c -7.6256,-4.832913 -15.72726,-3.584863 -23.82829,3.734997 -7.16483,-7.31986 -14.79716,-8.56791 -22.57962,-3.734997"
       id="path37" />
    <path
       d="m 692.40146,4.345253 c -7.78857,-4.670575 -15.4215,-2.962974 -23.20397,5.605545 -7.63233,-8.568519 -15.4221,-10.27612 -23.21068,-5.605545"
       id="path39" />
  </g>
  <g
     id="text-body"
     style="font-size:40px;fill:#ff9900;stroke:#ff9800;stroke-width:3.12519693;stroke-linejoin:round;font-family:HandelGothic BT;-inkscape-font-specification:HandelGothic BT Italic">
    <path
       d="m 36.252064,480.07584 -7.070578,43.24219 12.234375,0 c 8.109323,0 14.131365,-1.71092 18.066143,-5.13281 3.934654,-3.42185 6.552976,-9.11716 7.854975,-17.08594 1.257701,-7.68746 0.598358,-13.11323 -1.978035,-16.27735 -2.576527,-3.164 -7.685065,-4.74603 -15.32563,-4.74609 z m -17.359911,-16.38281 38.601562,0 c 11.624927,0 20.135515,3.42195 25.53177,10.26562 5.39611,6.84381 7.0942,16.38287 5.09427,28.61719 -0.82078,5.01566 -2.25359,9.62112 -4.29842,13.81641 -2.04501,4.19533 -4.733332,8.02736 -8.06498,11.49609 -3.963682,4.17188 -8.390134,7.16016 -13.27937,8.96484 -4.889366,1.80469 -11.130886,2.70704 -18.724582,2.70704 l -17.226563,0 -4.495179,27.49218 -20.039063,0 z"
       id="path42"
       style="fill:#666699;stroke:#656598" />
    <path
       d="m 111.27795,436.20084 19.89844,0 -4.49517,27.49219 17.78906,0 c 11.15617,0 18.87191,2.19148 23.14723,6.57422 4.27517,4.38287 5.61564,11.44927 4.02143,21.19922 l -7.86306,48.09375 -20.17969,0 7.48557,-45.77344 c 0.84909,-5.20308 0.47775,-8.74213 -1.11403,-10.61719 -1.5919,-1.87494 -4.9425,-2.81244 -10.05182,-2.8125 l -15.96094,0 -9.67909,59.20313 -19.89844,0 z"
       id="path44"
       style="fill:#666699;stroke:#656598" />
    <path
       d="m 210.90831,480.07584 -7.07058,43.24219 12.23438,0 c 8.10932,0 14.13136,-1.71092 18.06614,-5.13281 3.93465,-3.42185 6.55298,-9.11716 7.85497,-17.08594 1.25771,-7.68746 0.59836,-13.11323 -1.97803,-16.27735 -2.57653,-3.164 -7.68506,-4.74603 -15.32563,-4.74609 z m -17.35991,-16.38281 38.60157,0 c 11.62492,0 20.1355,3.42195 25.53176,10.26562 5.39611,6.84381 7.0942,16.38287 5.09427,28.61719 -0.82078,5.01566 -2.25359,9.62112 -4.29842,13.81641 -2.04501,4.19533 -4.73333,8.02736 -8.06498,11.49609 -3.96368,4.17188 -8.39013,7.16016 -13.27937,8.96484 -4.88936,1.80469 -11.13088,2.70704 -18.72458,2.70704 l -17.22656,0 -4.49518,27.49218 -20.03907,0 z"
       id="path46"
       style="fill:#666699;stroke:#656598" />
    <path
       d="m 287.97327,436.20084 31.92188,0 13.40041,79.3125 39.33396,-79.3125 31.78125,0 -16.9005,103.35938 -21.30469,0 14.92251,-80.50782 -39.67251,80.50782 -23.0625,0 -14.05,-81.35157 -11.12188,81.35157 -22.14843,0 z"
       id="path48" />
    <path
       d="m 442.13668,522.82584 16.10157,0 9.66953,-59.13281 20.03906,0 -12.07055,73.82812 c -1.64145,10.03125 -5.20055,17.46093 -10.67727,22.28907 -5.47686,4.8281 -13.04337,7.24216 -22.69957,7.24218 l -39.30469,0 2.51874,-15.39843 35.85937,0 c 3.84371,0 6.9478,-0.9258 9.31228,-2.77735 2.36439,-1.85157 3.83431,-4.53516 4.40979,-8.05078 l 0.2075,-1.26562 -17.71875,0 c -11.34378,0 -19.06339,-2.23828 -23.15886,-6.71485 -4.0955,-4.47655 -5.28943,-11.94139 -3.5818,-22.39453 l 7.646,-46.75781 19.82812,0 -7.39141,45.21094 c -0.93698,5.71877 -0.69542,9.46877 0.72464,11.25 1.42001,1.78126 4.84877,2.67189 10.2863,2.67187 z"
       id="path50" />
    <path
       d="m 549.34152,456.73209 -21.62193,39.79688 30.79688,0 z m -7.32918,-20.53125 23.0625,0 27.18543,103.35938 -24.1875,0 -5.46869,-24.60938 -44.92969,0 -13.23444,24.60938 -23.0625,0 z"
       id="path52" />
    <path
       d="m 650.46274,523.31803 7.07058,-43.24219 -12.09375,0 c -8.10942,0 -14.14086,1.69928 -18.09431,5.09766 -3.95354,3.39849 -6.57806,9.05864 -7.87358,16.98047 -1.2578,7.68753 -0.59066,13.13674 2.00142,16.34765 2.59202,3.21096 7.68491,4.81642 15.2787,4.81641 z m 17.31315,16.24219 -38.46094,0 c -11.62503,0 -20.13561,-3.42188 -25.53179,-10.26563 -5.39618,-6.84373 -7.09429,-16.38279 -5.09426,-28.61719 0.82068,-5.01558 2.25349,-9.62104 4.29843,-13.8164 2.0449,-4.19526 4.73322,-8.02729 8.06497,-11.4961 3.96358,-4.1718 8.40176,-7.16008 13.31454,-8.96484 4.9127,-1.80461 11.1425,-2.70696 18.68943,-2.70703 l 17.15625,0 4.49517,-27.49219 19.96875,0 z"
       id="path54" />
    <path
       d="m 697.68903,463.69303 76.92187,0 c 11.15614,0 18.83905,2.17976 23.04875,6.53906 4.20948,4.35944 5.51247,11.43756 3.90898,21.23438 l -7.86306,48.09375 -20.17969,0 7.43849,-45.49219 c 0.91182,-5.57808 0.6695,-9.25776 -0.727,-11.03906 -1.3967,-1.7812 -4.72,-2.67182 -9.9699,-2.67188 l -11.25,0 -9.67909,59.20313 -20.46094,0 9.6791,-59.20313 -23.41407,0 -9.67909,59.20313 -20.17969,0 z"
       id="path56" />
    <path
       d="m 846.40872,455.04459 -21.02344,0 3.08018,-18.84375 21.02344,0 z m -13.82033,84.51563 -21.02344,0 12.40534,-75.86719 21.02344,0 z"
       id="path58" />
    <path
       d="m 862.22028,463.69303 37.6875,0 c 11.39055,0 19.17272,2.1446 23.34657,6.43359 4.17366,4.28913 5.44769,11.4024 3.82207,21.33985 l -7.86306,48.09375 -20.03906,0 7.46203,-45.63282 c 0.92757,-5.67182 0.65007,-9.3515 -0.83247,-11.03906 -1.48267,-1.68744 -4.8724,-2.53119 -10.16922,-2.53125 l -16.10156,0 -9.67909,59.20313 -20.03907,0 z"
       id="path60" />
  </g>
</svg>
